{
  "asset": {
    "version": "2.0",
    "generator": "THREE.GLTFExporter r181"
  },
  "scenes": [
    {
      "name": "Scene",
      "nodes": [
        0,
        6,
        7
      ]
    }
  ],
  "scene": 0,
  "nodes": [
    {
      "name": "chassis.glb",
      "children": [
        1
      ]
    },
    {
      "matrix": [
        1,
        0,
        0,
        0,
        0,
        1,
        0,
        0,
        0,
        0,
        1,
        0,
        -106.3983496771839,
        -0.3285541236400604,
        0,
        1
      ],
      "name": "Final_chassis_June_2025_v3",
      "extras": {
        "name": "Final chassis June 2025 v3"
      },
      "children": [
        2,
        3,
        4,
        5
      ]
    },
    {
      "name": "Final_chassis_June_2025_v3_1",
      "mesh": 0
    },
    {
      "name": "Final_chassis_June_2025_v3_2",
      "mesh": 1
    },
    {
      "name": "Final_chassis_June_2025_v3_3",
      "mesh": 2
    },
    {
      "name": "Final_chassis_June_2025_v3_4",
      "mesh": 3
    },
    {
      "matrix": [
        1,
        0,
        0,
        0,
        0,
        1,
        0,
        0,
        0,
        0,
        1,
        0,
        539.6349498007427,
        187.64389793108404,
        7.5,
        1
      ],
      "name": "SpotLight",
      "extensions": {
        "KHR_lights_punctual": {
          "light": 0
        }
      }
    },
    {
      "name": "AmbientLight"
    }
  ],
  "bufferViews": [
    {
      "buffer": 0,
      "byteOffset": 0,
      "byteLength": 79488,
      "target": 34962,
      "byteStride": 12
    },
    {
      "buffer": 0,
      "byteOffset": 79488,
      "byteLength": 79488,
      "target": 34962,
      "byteStride": 12
    },
    {
      "buffer": 0,
      "byteOffset": 158976,
      "byteLength": 52992,
      "target": 34962,
      "byteStride": 8
    },
    {
      "buffer": 0,
      "byteOffset": 211968,
      "byteLength": 62928,
      "target": 34963
    },
    {
      "buffer": 0,
      "byteOffset": 274896,
      "byteLength": 377712,
      "target": 34962,
      "byteStride": 12
    },
    {
      "buffer": 0,
      "byteOffset": 652608,
      "byteLength": 377712,
      "target": 34962,
      "byteStride": 12
    },
    {
      "buffer": 0,
      "byteOffset": 1030320,
      "byteLength": 251808,
      "target": 34962,
      "byteStride": 8
    },
    {
      "buffer": 0,
      "byteOffset": 1282128,
      "byteLength": 277992,
      "target": 34963
    },
    {
      "buffer": 0,
      "byteOffset": 1560120,
      "byteLength": 8400,
      "target": 34962,
      "byteStride": 12
    },
    {
      "buffer": 0,
      "byteOffset": 1568520,
      "byteLength": 8400,
      "target": 34962,
      "byteStride": 12
    },
    {
      "buffer": 0,
      "byteOffset": 1576920,
      "byteLength": 5600,
      "target": 34962,
      "byteStride": 8
    },
    {
      "buffer": 0,
      "byteOffset": 1582520,
      "byteLength": 7488,
      "target": 34963
    },
    {
      "buffer": 0,
      "byteOffset": 1590008,
      "byteLength": 182880,
      "target": 34962,
      "byteStride": 12
    },
    {
      "buffer": 0,
      "byteOffset": 1772888,
      "byteLength": 182880,
      "target": 34962,
      "byteStride": 12
    },
    {
      "buffer": 0,
      "byteOffset": 1955768,
      "byteLength": 121920,
      "target": 34962,
      "byteStride": 8
    },
    {
      "buffer": 0,
      "byteOffset": 2077688,
      "byteLength": 115332,
      "target": 34963
    }
  ],
  "buffers": [
    {
      "byteLength": 2193020,
      "uri": "data:application/octet-stream;base64,"
    }
  ],
  "accessors": [
    {
      "bufferView": 0,
      "componentType": 5126,
      "count": 6624,
      "max": [
        199.7726287841797,
        88.40774536132812,
        32.339534759521484
      ],
      "min": [
        76.40859985351562,
        -23.236480712890625,
        -32.339534759521484
      ],
      "type": "VEC3"
    },
    {
      "bufferView": 1,
      "componentType": 5126,
      "count": 6624,
      "max": [
        1,
        1,
        1
      ],
      "min": [
        -1,
        -1,
        -1
      ],
      "type": "VEC3"
    },
    {
      "bufferView": 2,
      "componentType": 5126,
      "count": 6624,
      "max": [
        71.69566345214844,
        72.64503479003906
      ],
      "min": [
        -59.664058685302734,
        -39.079227447509766
      ],
      "type": "VEC2"
    },
    {
      "bufferView": 3,
      "componentType": 5123,
      "count": 31464,
      "max": [
        6623
      ],
      "min": [
        0
      ],
      "type": "SCALAR"
    },
    {
      "bufferView": 4,
      "componentType": 5126,
      "count": 31476,
      "max": [
        215.49371337890625,
        88.16007232666016,
        32.308937072753906
      ],
      "min": [
        3,
        -23.239967346191406,
        -32.308937072753906
      ],
      "type": "VEC3"
    },
    {
      "bufferView": 5,
      "componentType": 5126,
      "count": 31476,
      "max": [
        1,
        1,
        1
      ],
      "min": [
        -1,
        -1,
        -1
      ],
      "type": "VEC3"
    },
    {
      "bufferView": 6,
      "componentType": 5126,
      "count": 31476,
      "max": [
        87.3810043334961,
        72.12318420410156
      ],
      "min": [
        -84.51470184326172,
        -38.776546478271484
      ],
      "type": "VEC2"
    },
    {
      "bufferView": 7,
      "componentType": 5123,
      "count": 138996,
      "max": [
        31475
      ],
      "min": [
        0
      ],
      "type": "SCALAR"
    },
    {
      "bufferView": 8,
      "componentType": 5126,
      "count": 700,
      "max": [
        162.4327850341797,
        28.590099334716797,
        32.30423355102539
      ],
      "min": [
        77.35144805908203,
        4.691493988037109,
        -32.30423355102539
      ],
      "type": "VEC3"
    },
    {
      "bufferView": 9,
      "componentType": 5126,
      "count": 700,
      "max": [
        0.2575928866863251,
        0.969241738319397,
        0.996856153011322
      ],
      "min": [
        -0.2575928866863251,
        -0.969241738319397,
        -0.996856153011322
      ],
      "type": "VEC3"
    },
    {
      "bufferView": 10,
      "componentType": 5126,
      "count": 700,
      "max": [
        0,
        4.989823341369629
      ],
      "min": [
        -87.3810043334961,
        -2.98982310295105
      ],
      "type": "VEC2"
    },
    {
      "bufferView": 11,
      "componentType": 5123,
      "count": 3744,
      "max": [
        699
      ],
      "min": [
        0
      ],
      "type": "SCALAR"
    },
    {
      "bufferView": 12,
      "componentType": 5126,
      "count": 15240,
      "max": [
        215.49371337890625,
        18.5,
        33.30636215209961
      ],
      "min": [
        0,
        -19.604820251464844,
        -33.30636215209961
      ],
      "type": "VEC3"
    },
    {
      "bufferView": 13,
      "componentType": 5126,
      "count": 15240,
      "max": [
        1,
        1,
        1
      ],
      "min": [
        -1,
        -1,
        -1
      ],
      "type": "VEC3"
    },
    {
      "bufferView": 14,
      "componentType": 5126,
      "count": 15240,
      "max": [
        58.09825897216797,
        66.06066131591797
      ],
      "min": [
        -50.000640869140625,
        -64.06066131591797
      ],
      "type": "VEC2"
    },
    {
      "bufferView": 15,
      "componentType": 5123,
      "count": 57666,
      "max": [
        15239
      ],
      "min": [
        0
      ],
      "type": "SCALAR"
    }
  ],
  "materials": [
    {
      "pbrMetallicRoughness": {
        "baseColorFactor": [
          0.4793201830913402,
          0,
          0.0018211619011764706,
          1
        ],
        "metallicFactor": 1,
        "roughnessFactor": 0.3669724762439728
      },
      "doubleSided": true,
      "name": "Opaque(202,209,238)_(1)_(1)",
      "extensions": {
        "KHR_materials_ior": {
          "ior": 1.4999999999999998
        },
        "KHR_materials_specular": {
          "specularFactor": 0,
          "specularColorFactor": [
            1,
            1,
            1
          ]
        }
      }
    },
    {
      "pbrMetallicRoughness": {
        "baseColorFactor": [
          0.014443843592229466,
          0,
          0.7991027380100881,
          1
        ],
        "metallicFactor": 1,
        "roughnessFactor": 0.3486238718032837
      },
      "doubleSided": true,
      "name": "Opaque(202,209,238)",
      "extensions": {
        "KHR_materials_ior": {
          "ior": 1.4999999999999998
        },
        "KHR_materials_specular": {
          "specularFactor": 0,
          "specularColorFactor": [
            1,
            1,
            1
          ]
        }
      }
    },
    {
      "pbrMetallicRoughness": {
        "baseColorFactor": [
          0.7991027380100881,
          0.3967552307153359,
          0,
          1
        ],
        "metallicFactor": 1,
        "roughnessFactor": 0.44954127073287964
      },
      "doubleSided": true,
      "name": "Opaque(202,209,238)_(1)",
      "extensions": {
        "KHR_materials_ior": {
          "ior": 1.4999999999999998
        },
        "KHR_materials_specular": {
          "specularFactor": 0,
          "specularColorFactor": [
            1,
            1,
            1
          ]
        }
      }
    },
    {
      "pbrMetallicRoughness": {
        "baseColorFactor": [
          0.34191442489801843,
          0.34191442489801843,
          0.34191442489801843,
          1
        ],
        "metallicFactor": 1,
        "roughnessFactor": 0.2844036817550659
      },
      "doubleSided": true,
      "name": "Opaque(202,209,238)_(1)_(1)_(1)",
      "extensions": {
        "KHR_materials_ior": {
          "ior": 1.4999999999999998
        },
        "KHR_materials_specular": {
          "specularFactor": 0,
          "specularColorFactor": [
            1,
            1,
            1
          ]
        }
      }
    }
  ],
  "meshes": [
    {
      "primitives": [
        {
          "mode": 4,
          "attributes": {
            "POSITION": 0,
            "NORMAL": 1,
            "TEXCOORD_0": 2
          },
          "indices": 3,
          "material": 0
        }
      ]
    },
    {
      "primitives": [
        {
          "mode": 4,
          "attributes": {
            "POSITION": 4,
            "NORMAL": 5,
            "TEXCOORD_0": 6
          },
          "indices": 7,
          "material": 1
        }
      ]
    },
    {
      "primitives": [
        {
          "mode": 4,
          "attributes": {
            "POSITION": 8,
            "NORMAL": 9,
            "TEXCOORD_0": 10
          },
          "indices": 11,
          "material": 2
        }
      ]
    },
    {
      "primitives": [
        {
          "mode": 4,
          "attributes": {
            "POSITION": 12,
            "NORMAL": 13,
            "TEXCOORD_0": 14
          },
          "indices": 15,
          "material": 3
        }
      ]
    }
  ],
  "extensions": {
    "KHR_lights_punctual": {
      "lights": [
        {
          "name": "SpotLight",
          "color": [
            1,
            1,
            1
          ],
          "intensity": 5000000,
          "type": "spot",
          "spot": {
            "innerConeAngle": 0.3141592653589793,
            "outerConeAngle": 0.3141592653589793
          }
        }
      ]
    }
  },
  "extensionsUsed": [
    "KHR_materials_ior",
    "KHR_materials_specular",
    "KHR_lights_punctual"
  ]
}